<svg width="70" height="76" viewBox="0 0 70 76" fill="none" xmlns="http://www.w3.org/2000/svg">
<path d="M30.1459 7.28132e-05C24.9229 7.28132e-05 20.6883 5.28864 20.6883 11.8117C21.136 19.7789 25.4389 22.048 30.1935 26.5091C33.729 29.303 33.2961 32.4171 34.0087 37.426C30.8617 38.4215 27.0895 39.6027 24.8498 37.2246L19.512 32.482C19.5043 32.4741 19.4958 32.4674 19.4881 32.4596C17.8566 30.7887 15.7679 29.7826 13.4935 29.7826C9.49521 29.7826 6.08189 32.8818 4.69875 37.2617C4.51663 38.1415 4.40032 38.1366 3.78525 38.1343C1.69359 38.1343 0 40.2494 0 42.862C0 45.4744 1.69359 47.5897 3.78542 47.5897C5.59306 47.3382 4.94667 47.0678 5.97065 48.753C7.69907 51.5805 10.4259 53.406 13.4937 53.406C17.3521 53.406 20.6683 50.5196 22.1392 46.3817C23.8101 47.5769 25.2554 48.0262 27.1606 48.3502H70C64.6918 36.2677 51.5085 38.1345 42.8395 37.0979C41.0593 31.5751 40.6579 24.2801 36.5286 20.5735H36.4867C38.401 18.412 39.6034 15.2884 39.6034 11.8117C39.6034 5.28856 35.3688 0 30.1459 0V7.28132e-05ZM30.1459 5.90585C32.7574 5.90585 34.8745 8.55013 34.8745 11.8116C34.8745 15.0731 32.7573 17.7173 30.1459 17.7173C27.5343 17.7173 25.4171 15.073 25.4171 11.8116C25.4171 8.55013 27.5344 5.90585 30.1459 5.90585ZM13.4937 35.6884C16.1051 35.6884 18.2224 38.3327 18.2224 41.5942C18.2224 44.8557 16.1051 47.4999 13.4937 47.4999C10.8822 47.4999 8.76493 44.8555 8.76493 41.5942C8.76493 38.3327 10.8823 35.6884 13.4937 35.6884ZM38.7376 38.164C40.2215 38.164 41.4244 39.6663 41.4244 41.5196C41.4244 43.3728 40.2215 44.8752 38.7376 44.8752C37.2538 44.8752 36.0508 43.373 36.0508 41.5196C36.0509 39.6663 37.2538 38.164 38.7376 38.164ZM38.9407 54.3379C42.586 63.5395 45.1086 74.8326 54.3092 76L47.8249 54.3378H38.9407V54.3379ZM10.4964 60.8776V66.1571H19.7091V60.8776H10.4964ZM27.0769 60.8776V66.1571H37.2451L35.2987 60.8776H27.0769ZM55.9809 60.8776L57.2347 66.1571H66.4475V60.8776H55.9809Z" fill="black"/>
</svg>
