<svg width="76" height="75" viewBox="0 0 76 75" fill="none" xmlns="http://www.w3.org/2000/svg">
<path d="M34.7708 23.0583C32.6056 18.7356 30.0568 14.472 27.6492 9.83887C27.5833 9.69528 27.5292 9.54745 27.4562 9.40386C27.3056 9.10399 27.1338 8.81891 26.9667 8.53171L26.8443 8.29731L26.8396 8.30365C22.9847 1.98959 14.8535 -0.907695 8.06845 1.82699C0.899813 4.71372 -2.04201 12.7911 1.5023 19.8653C5.04425 26.9417 13.7262 30.3332 20.8948 27.4443C21.1443 27.3451 21.3773 27.2226 21.615 27.1086C26.1689 28.0335 26.3078 31.0723 26.3078 31.0723C26.3078 31.0723 37.176 27.8603 34.7708 23.0583ZM6.69403 17.7747C4.43941 13.2704 6.10096 8.21496 10.4007 6.48334C14.6981 4.7475 20.0122 6.99438 22.2669 11.4966C24.5215 15.9988 22.8623 21.0542 18.5649 22.7859C14.2628 24.5196 8.94629 22.2769 6.69403 17.7747Z" fill="black"/>
<path d="M58.71 74.1471C61.4471 72.7597 63.8571 68.9227 62.3085 66.4646L34.6483 22.813C32.0524 23.8604 27.7338 27.6974 26.3076 31.0741L58.71 74.1471Z" fill="black"/>
<path d="M67.0932 1.82454C60.3105 -0.910127 52.177 1.98714 48.322 8.30117L48.315 8.29483L48.1902 8.53134C48.0231 8.81643 47.849 9.10151 47.7007 9.40137C47.6301 9.54497 47.576 9.69068 47.5101 9.83638C45.1025 14.4695 42.5513 18.733 40.3885 23.0557C37.9856 27.8577 48.8539 31.0718 48.8539 31.0718C48.8539 31.0718 48.9928 28.033 53.5443 27.1081C53.7844 27.2221 54.015 27.3425 54.2669 27.4439C61.4331 30.3327 70.1127 26.9413 73.6594 19.8649C77.2013 12.7907 74.2595 4.71337 67.0932 1.82454ZM68.4676 17.7743C66.2107 22.2765 60.8989 24.5191 56.5968 22.7854C52.2994 21.0538 50.6402 15.9984 52.8971 11.4962C55.147 6.99402 60.4612 4.74926 64.7609 6.48298C69.0607 8.21459 70.7199 13.27 68.4676 17.7743Z" fill="black"/>
<path d="M16.4515 74.1471C13.7145 72.7597 11.3045 68.9227 12.8531 66.4646L40.5133 22.813C43.1092 23.8604 47.4278 27.6974 48.854 31.0741L16.4515 74.1471Z" fill="black"/>
</svg>
