<svg width="70" height="71" viewBox="0 0 70 71" fill="none" xmlns="http://www.w3.org/2000/svg">
<path fill-rule="evenodd" clip-rule="evenodd" d="M59.3443 11.0502L69.7921 21.5314C71.0302 17.2538 66.6551 9.62429 58.8981 1.85005C53.4642 -3.60772 38.8295 7.88255 22.9478 23.8127C7.07058 39.7341 -4.03781 54.0498 1.39606 59.5032C9 67.1239 16.8533 71.6779 21.189 70.3836L10.6844 59.8542C9.26688 58.4327 9.21 56.1952 10.5488 54.8483L17.0633 48.32L29.3355 60.6263C30.7924 62.0873 32.9449 62.2847 34.1612 61.0738C35.3644 59.863 35.1675 57.6956 33.715 56.2391L21.4384 43.9328L30.1886 35.1626L42.4608 47.4645C43.9177 48.9255 46.0703 49.1229 47.2865 47.912C48.4897 46.7011 48.2928 44.5338 46.8403 43.0772L34.5681 30.7709L43.3183 22.0008L55.5905 34.3027C57.0474 35.7637 59.1999 35.9611 60.4162 34.7502C61.6194 33.5393 61.4225 31.372 59.97 29.9154L47.6978 17.6091L54.3611 10.9273C55.6999 9.57603 57.9312 9.63307 59.3443 11.0502Z" fill="black"/>
</svg>
